<svg xmlns="http://www.w3.org/2000/svg" viewBox="0 0 800 500">
  <defs>
    <linearGradient id="sky5" x1="0" y1="0" x2="0" y2="1">
      <stop offset="0%" stop-color="#080c12"/>
      <stop offset="60%" stop-color="#0e1a28"/>
      <stop offset="100%" stop-color="#1a2e40"/>
    </linearGradient>
    <linearGradient id="brick5" x1="0" y1="0" x2="1" y2="0">
      <stop offset="0%" stop-color="#5a3028"/>
      <stop offset="50%" stop-color="#6e3a30"/>
      <stop offset="100%" stop-color="#5a3028"/>
    </linearGradient>
    <linearGradient id="win5light" x1="0" y1="0" x2="0" y2="1">
      <stop offset="0%" stop-color="#ffe0a0"/>
      <stop offset="100%" stop-color="#ff9a30"/>
    </linearGradient>
    <linearGradient id="ground5" x1="0" y1="0" x2="0" y2="1">
      <stop offset="0%" stop-color="#2a2a32"/>
      <stop offset="100%" stop-color="#1e1e26"/>
    </linearGradient>
    <filter id="winGlow">
      <feGaussianBlur stdDeviation="4" result="b"/>
      <feComposite in="SourceGraphic" in2="b" operator="over"/>
    </filter>
    <filter id="lampGlow">
      <feGaussianBlur stdDeviation="6" result="b"/>
      <feComposite in="SourceGraphic" in2="b" operator="over"/>
    </filter>
  </defs>

  <!-- Ciel nocturne -->
  <rect width="800" height="500" fill="url(#sky5)"/>

  <!-- Étoiles -->
  <circle cx="60" cy="25" r="1.5" fill="white" opacity="0.7"/>
  <circle cx="150" cy="45" r="1" fill="white" opacity="0.5"/>
  <circle cx="240" cy="18" r="2" fill="white" opacity="0.6"/>
  <circle cx="380" cy="38" r="1" fill="white" opacity="0.4"/>
  <circle cx="500" cy="22" r="1.5" fill="white" opacity="0.7"/>
  <circle cx="620" cy="48" r="1" fill="white" opacity="0.5"/>
  <circle cx="720" cy="28" r="2" fill="white" opacity="0.6"/>
  <circle cx="450" cy="60" r="1.5" fill="white" opacity="0.4"/>

  <!-- Lune croissant -->
  <circle cx="700" cy="60" r="28" fill="#d4c880" opacity="0.35"/>
  <circle cx="712" cy="55" r="22" fill="#0e1a28" opacity="1"/>

  <!-- Immeubles fond gauche -->
  <rect x="0" y="220" width="80" height="280" fill="#0d1622"/>
  <rect x="70" y="250" width="55" height="250" fill="#0f1a26"/>
  <rect x="0" y="260" width="25" height="5" fill="#ffe880" opacity="0.15"/>
  <rect x="0" y="290" width="25" height="5" fill="#ffe880" opacity="0.1"/>
  <rect x="30" y="275" width="25" height="5" fill="#ffe880" opacity="0.15"/>

  <!-- Immeubles fond droite -->
  <rect x="670" y="230" width="80" height="270" fill="#0d1622"/>
  <rect x="710" y="210" width="90" height="290" fill="#0f1a26"/>
  <rect x="675" y="250" width="25" height="5" fill="#ffe880" opacity="0.15"/>
  <rect x="720" y="230" width="25" height="5" fill="#ffe880" opacity="0.12"/>
  <rect x="750" y="250" width="25" height="5" fill="#ffe880" opacity="0.1"/>

  <!-- SOL -->
  <rect x="0" y="440" width="800" height="60" fill="url(#ground5)"/>
  <rect x="0" y="438" width="800" height="4" fill="#3a3a48" opacity="0.8"/>

  <!-- Reflets pluie au sol -->
  <ellipse cx="400" cy="448" rx="120" ry="8" fill="#ffe890" opacity="0.04"/>
  <ellipse cx="180" cy="445" rx="80" ry="6" fill="#ffe890" opacity="0.03"/>
  <ellipse cx="620" cy="445" rx="80" ry="6" fill="#ffe890" opacity="0.03"/>

  <!-- FAÇADE BRIQUE principale -->
  <rect x="110" y="80" width="580" height="365" fill="url(#brick5)"/>

  <!-- Motif briques (lignes horizontales) -->
  <line x1="110" y1="100" x2="690" y2="100" stroke="#4a2820" stroke-width="1" opacity="0.5"/>
  <line x1="110" y1="120" x2="690" y2="120" stroke="#4a2820" stroke-width="1" opacity="0.5"/>
  <line x1="110" y1="140" x2="690" y2="140" stroke="#4a2820" stroke-width="1" opacity="0.5"/>
  <line x1="110" y1="160" x2="690" y2="160" stroke="#4a2820" stroke-width="1" opacity="0.5"/>
  <line x1="110" y1="180" x2="690" y2="180" stroke="#4a2820" stroke-width="1" opacity="0.5"/>
  <line x1="110" y1="200" x2="690" y2="200" stroke="#4a2820" stroke-width="1" opacity="0.5"/>
  <line x1="110" y1="220" x2="690" y2="220" stroke="#4a2820" stroke-width="1" opacity="0.5"/>
  <line x1="110" y1="240" x2="690" y2="240" stroke="#4a2820" stroke-width="1" opacity="0.5"/>
  <line x1="110" y1="260" x2="690" y2="260" stroke="#4a2820" stroke-width="1" opacity="0.5"/>
  <line x1="110" y1="280" x2="690" y2="280" stroke="#4a2820" stroke-width="1" opacity="0.5"/>
  <line x1="110" y1="300" x2="690" y2="300" stroke="#4a2820" stroke-width="1" opacity="0.5"/>
  <line x1="110" y1="320" x2="690" y2="320" stroke="#4a2820" stroke-width="1" opacity="0.5"/>
  <line x1="110" y1="340" x2="690" y2="340" stroke="#4a2820" stroke-width="1" opacity="0.5"/>
  <line x1="110" y1="360" x2="690" y2="360" stroke="#4a2820" stroke-width="1" opacity="0.5"/>
  <line x1="110" y1="380" x2="690" y2="380" stroke="#4a2820" stroke-width="1" opacity="0.5"/>
  <line x1="110" y1="400" x2="690" y2="400" stroke="#4a2820" stroke-width="1" opacity="0.5"/>
  <line x1="110" y1="420" x2="690" y2="420" stroke="#4a2820" stroke-width="1" opacity="0.5"/>

  <!-- Lignes verticales briques (décalées par rangée) -->
  <!-- Rangées paires -->
  <line x1="175" y1="80" x2="175" y2="440" stroke="#4a2820" stroke-width="0.8" opacity="0.4"/>
  <line x1="240" y1="80" x2="240" y2="440" stroke="#4a2820" stroke-width="0.8" opacity="0.4"/>
  <line x1="305" y1="80" x2="305" y2="440" stroke="#4a2820" stroke-width="0.8" opacity="0.4"/>
  <line x1="370" y1="80" x2="370" y2="440" stroke="#4a2820" stroke-width="0.8" opacity="0.4"/>
  <line x1="435" y1="80" x2="435" y2="440" stroke="#4a2820" stroke-width="0.8" opacity="0.4"/>
  <line x1="500" y1="80" x2="500" y2="440" stroke="#4a2820" stroke-width="0.8" opacity="0.4"/>
  <line x1="565" y1="80" x2="565" y2="440" stroke="#4a2820" stroke-width="0.8" opacity="0.4"/>
  <line x1="630" y1="80" x2="630" y2="440" stroke="#4a2820" stroke-width="0.8" opacity="0.4"/>

  <!-- Corniche métal haut -->
  <rect x="100" y="75" width="600" height="12" fill="#2a3a4a"/>
  <rect x="100" y="84" width="600" height="3" fill="#3DBFB8" opacity="0.4"/>

  <!-- Bandeau fenêtres (3 rangées, grandes baies) -->
  <!-- RANGÉE 1 (y=100-190) — Arc en ogive -->
  <!-- Grande fenêtre 1 -->
  <rect x="130" y="100" width="120" height="125" fill="rgba(0,0,0,0.5)" rx="2"/>
  <path d="M130 185 L130 108 Q190 78 250 108 L250 185Z" fill="url(#win5light)" opacity="0.85" filter="url(#winGlow)"/>
  <line x1="190" y1="100" x2="190" y2="185" stroke="#6a4020" stroke-width="3" opacity="0.6"/>
  <line x1="130" y1="145" x2="250" y2="145" stroke="#6a4020" stroke-width="2" opacity="0.5"/>
  <rect x="128" y="98" width="124" height="129" stroke="#8a5030" stroke-width="2.5" fill="none" rx="2"/>

  <!-- Grande fenêtre 2 -->
  <rect x="270" y="100" width="120" height="125" fill="rgba(0,0,0,0.5)" rx="2"/>
  <path d="M270 185 L270 108 Q330 78 390 108 L390 185Z" fill="url(#win5light)" opacity="0.75" filter="url(#winGlow)"/>
  <line x1="330" y1="100" x2="330" y2="185" stroke="#6a4020" stroke-width="3" opacity="0.6"/>
  <line x1="270" y1="145" x2="390" y2="145" stroke="#6a4020" stroke-width="2" opacity="0.5"/>
  <rect x="268" y="98" width="124" height="129" stroke="#8a5030" stroke-width="2.5" fill="none" rx="2"/>

  <!-- Grande fenêtre 3 -->
  <rect x="410" y="100" width="120" height="125" fill="rgba(0,0,0,0.5)" rx="2"/>
  <path d="M410 185 L410 108 Q470 78 530 108 L530 185Z" fill="url(#win5light)" opacity="0.9" filter="url(#winGlow)"/>
  <line x1="470" y1="100" x2="470" y2="185" stroke="#6a4020" stroke-width="3" opacity="0.6"/>
  <line x1="410" y1="145" x2="530" y2="145" stroke="#6a4020" stroke-width="2" opacity="0.5"/>
  <rect x="408" y="98" width="124" height="129" stroke="#8a5030" stroke-width="2.5" fill="none" rx="2"/>

  <!-- Grande fenêtre 4 -->
  <rect x="550" y="100" width="120" height="125" fill="rgba(0,0,0,0.5)" rx="2"/>
  <path d="M550 185 L550 108 Q610 78 670 108 L670 185Z" fill="url(#win5light)" opacity="0.65" filter="url(#winGlow)"/>
  <line x1="610" y1="100" x2="610" y2="185" stroke="#6a4020" stroke-width="3" opacity="0.6"/>
  <line x1="550" y1="145" x2="670" y2="145" stroke="#6a4020" stroke-width="2" opacity="0.5"/>
  <rect x="548" y="98" width="124" height="129" stroke="#8a5030" stroke-width="2.5" fill="none" rx="2"/>

  <!-- RANGÉE 2 (y=215-305) -->
  <rect x="130" y="215" width="120" height="95" fill="rgba(0,0,0,0.5)" rx="1"/>
  <rect x="132" y="217" width="116" height="91" fill="url(#win5light)" opacity="0.7" filter="url(#winGlow)" rx="1"/>
  <line x1="190" y1="215" x2="190" y2="310" stroke="#6a4020" stroke-width="2.5" opacity="0.6"/>
  <line x1="130" y1="262" x2="250" y2="262" stroke="#6a4020" stroke-width="2" opacity="0.5"/>

  <rect x="270" y="215" width="120" height="95" fill="rgba(0,0,0,0.5)" rx="1"/>
  <rect x="272" y="217" width="116" height="91" fill="url(#win5light)" opacity="0.55" filter="url(#winGlow)" rx="1"/>
  <line x1="330" y1="215" x2="330" y2="310" stroke="#6a4020" stroke-width="2.5" opacity="0.6"/>
  <line x1="270" y1="262" x2="390" y2="262" stroke="#6a4020" stroke-width="2" opacity="0.5"/>

  <rect x="410" y="215" width="120" height="95" fill="rgba(0,0,0,0.5)" rx="1"/>
  <rect x="412" y="217" width="116" height="91" fill="url(#win5light)" opacity="0.8" filter="url(#winGlow)" rx="1"/>
  <line x1="470" y1="215" x2="470" y2="310" stroke="#6a4020" stroke-width="2.5" opacity="0.6"/>
  <line x1="410" y1="262" x2="530" y2="262" stroke="#6a4020" stroke-width="2" opacity="0.5"/>

  <rect x="550" y="215" width="120" height="95" fill="rgba(0,0,0,0.5)" rx="1"/>
  <rect x="552" y="217" width="116" height="91" fill="url(#win5light)" opacity="0.5" filter="url(#winGlow)" rx="1"/>
  <line x1="610" y1="215" x2="610" y2="310" stroke="#6a4020" stroke-width="2.5" opacity="0.6"/>
  <line x1="550" y1="262" x2="670" y2="262" stroke="#6a4020" stroke-width="2" opacity="0.5"/>

  <!-- RANGÉE 3 (y=328-400) -->
  <rect x="130" y="328" width="120" height="78" fill="rgba(0,0,0,0.5)" rx="1"/>
  <rect x="132" y="330" width="116" height="74" fill="url(#win5light)" opacity="0.6" rx="1"/>
  <line x1="190" y1="328" x2="190" y2="406" stroke="#6a4020" stroke-width="2.5" opacity="0.6"/>

  <rect x="270" y="328" width="120" height="78" fill="rgba(0,0,0,0.5)" rx="1"/>
  <rect x="272" y="330" width="116" height="74" fill="url(#win5light)" opacity="0.75" rx="1"/>
  <line x1="330" y1="328" x2="330" y2="406" stroke="#6a4020" stroke-width="2.5" opacity="0.6"/>

  <!-- Porte atelier (grande, double) -->
  <rect x="390" y="330" width="140" height="115" fill="#1a2430" rx="2"/>
  <rect x="393" y="333" width="63" height="110" stroke="#C9A84C" stroke-width="2" fill="rgba(255,180,80,0.04)" rx="1"/>
  <rect x="461" y="333" width="66" height="110" stroke="#C9A84C" stroke-width="2" fill="rgba(255,180,80,0.04)" rx="1"/>
  <rect x="393" y="333" width="30" height="52" fill="#ffe8a0" opacity="0.12"/>
  <rect x="425" y="333" width="30" height="52" fill="#ffe8a0" opacity="0.12"/>
  <rect x="461" y="333" width="31" height="52" fill="#ffe8a0" opacity="0.12"/>
  <rect x="495" y="333" width="29" height="52" fill="#ffe8a0" opacity="0.12"/>
  <circle cx="455" cy="400" r="4" fill="#C9A84C"/>
  <circle cx="461" cy="400" r="4" fill="#C9A84C"/>

  <rect x="550" y="328" width="120" height="78" fill="rgba(0,0,0,0.5)" rx="1"/>
  <rect x="552" y="330" width="116" height="74" fill="url(#win5light)" opacity="0.5" rx="1"/>
  <line x1="610" y1="328" x2="610" y2="406" stroke="#6a4020" stroke-width="2.5" opacity="0.6"/>

  <!-- Plaques tuyaux / conduits industriels -->
  <rect x="115" y="200" width="12" height="180" fill="#3a3540" rx="3"/>
  <rect x="110" y="280" width="20" height="12" fill="#4a4550" rx="2"/>
  <rect x="673" y="200" width="12" height="180" fill="#3a3540" rx="3"/>
  <rect x="670" y="280" width="20" height="12" fill="#4a4550" rx="2"/>

  <!-- Lampadaires rue -->
  <rect x="210" y="370" width="5" height="78" fill="#555"/>
  <path d="M215 372 Q228 358 238 366" stroke="#777" stroke-width="2.5" fill="none"/>
  <circle cx="239" cy="365" r="7" fill="#ffe880" opacity="0.9" filter="url(#lampGlow)"/>
  <circle cx="239" cy="365" r="14" fill="#ffe880" opacity="0.18"/>
  <ellipse cx="239" cy="445" rx="25" ry="8" fill="#ffe880" opacity="0.07"/>

  <rect x="585" y="370" width="5" height="78" fill="#555"/>
  <path d="M585 372 Q572 358 562 366" stroke="#777" stroke-width="2.5" fill="none"/>
  <circle cx="561" cy="365" r="7" fill="#ffe880" opacity="0.9" filter="url(#lampGlow)"/>
  <circle cx="561" cy="365" r="14" fill="#ffe880" opacity="0.18"/>
  <ellipse cx="561" cy="445" rx="25" ry="8" fill="#ffe880" opacity="0.07"/>

  <!-- Enseigne "LOFT" néon teal -->
  <text x="400" y="82" font-family="Arial,sans-serif" font-size="20" font-weight="bold" fill="#3DBFB8" text-anchor="middle" opacity="0.85" filter="url(#winGlow)">LOFT &amp; CO.</text>
  <rect x="305" y="68" width="190" height="2" fill="#3DBFB8" opacity="0.3"/>

  <!-- Bande info -->
  <rect x="0" y="462" width="800" height="38" fill="rgba(5,5,12,0.82)"/>
  <text x="22" y="488" font-family="Georgia,serif" font-size="15" font-weight="bold" fill="#C9A84C">Loft Urbain — Halle Industrielle</text>
  <text x="778" y="488" font-family="Georgia,serif" font-size="12" fill="#3DBFB8" text-anchor="end">Ymmo Immobilier</text>
</svg>
